<svg xmlns="http://www.w3.org/2000/svg" viewBox="0 0 359.68 330.75"><defs><style>.cls-1{fill:#e08631;}.cls-1,.cls-2{fill-rule:evenodd;}.cls-2{fill:#4b0027;}</style></defs><g id="Calque_2" data-name="Calque 2"><g id="Layer_1" data-name="Layer 1"><path class="cls-1" d="M248.57,28.47a97.2,97.2,0,0,1,0,137.46l-35.83,35.84L144,133c22.62-22.63,44.9-11.49,56.39,0l12.34,12.34,7.64-7.64a57.33,57.33,0,1,0-81.07,0l40.53,40.53c1.64,1.64,27.49,28.9,0,56.4l-68.73-68.74A97.2,97.2,0,0,1,248.57,28.47Z"/><path class="cls-1" d="M159.21,141.37,147.44,129.6A45.67,45.67,0,0,1,134,97.2h0a2.43,2.43,0,0,0-2.43-2.42h0a2.44,2.44,0,0,0-2.43,2.42h0A50.58,50.58,0,0,0,144,133l15.2,15.2Z"/><path class="cls-2" d="M179.84,144.45a7.63,7.63,0,1,0-7.63-7.63A7.64,7.64,0,0,0,179.84,144.45Z"/><path class="cls-1" d="M4.32,312.27a15.54,15.54,0,0,0,1.5,1,14.12,14.12,0,0,0,2.09,1,16,16,0,0,0,2.59.77,13.93,13.93,0,0,0,2.93.3,11.77,11.77,0,0,0,5.35-1.1,9.4,9.4,0,0,0,3.49-3,12.83,12.83,0,0,0,1.92-4.45,23.69,23.69,0,0,0,.6-5.42q0-6.78-3.39-10.4a11.69,11.69,0,0,0-9-3.62,35.42,35.42,0,0,0-5.15.3,19.26,19.26,0,0,0-3,.63v24Zm0,18.48H0V285.29A38.2,38.2,0,0,1,4.92,284a39.66,39.66,0,0,1,7.58-.59,18.43,18.43,0,0,1,6.87,1.23,14.85,14.85,0,0,1,5.32,3.55,16,16,0,0,1,3.46,5.65,21.55,21.55,0,0,1,1.23,7.51,24.2,24.2,0,0,1-1,7.21,16,16,0,0,1-3,5.65,14,14,0,0,1-4.88,3.69,15.62,15.62,0,0,1-6.62,1.33,16.32,16.32,0,0,1-5.88-1,15.84,15.84,0,0,1-3.62-1.83v14.29Zm42.11-11.7a14.1,14.1,0,0,1-3.82-.57A6.85,6.85,0,0,1,39.88,317a6.6,6.6,0,0,1-1.66-2.66,12.86,12.86,0,0,1-.56-4.09V267.67l4.32-.79v43.2a8.92,8.92,0,0,0,.3,2.56,3.49,3.49,0,0,0,.89,1.53,3.73,3.73,0,0,0,1.57.83,20.46,20.46,0,0,0,2.29.46l-.6,3.59Zm18.05-3.72c1.68,0,3.16-.06,4.42-.17a29.2,29.2,0,0,0,3.22-.43v-12.1a13,13,0,0,0-2.32-.69,20.22,20.22,0,0,0-4.39-.37,25.75,25.75,0,0,0-3.32.23,9.68,9.68,0,0,0-3.19,1,6.65,6.65,0,0,0-2.4,2.09,6,6,0,0,0-.93,3.53,7.39,7.39,0,0,0,.64,3.25A5.18,5.18,0,0,0,58,313.8,8,8,0,0,0,60.79,315a16.58,16.58,0,0,0,3.69.37Zm-.4-32a15.06,15.06,0,0,1,5.75,1,9.72,9.72,0,0,1,3.82,2.66,10.22,10.22,0,0,1,2.13,4,18.42,18.42,0,0,1,.66,5.05v21.66a18.11,18.11,0,0,1-1.92.44c-.85.15-1.82.32-2.93.49s-2.34.33-3.69.44-2.73.16-4.15.16a19.8,19.8,0,0,1-5-.6,11,11,0,0,1-4-1.89,9,9,0,0,1-2.66-3.32,11.5,11.5,0,0,1-1-4.95,10.17,10.17,0,0,1,1.06-4.79,9,9,0,0,1,3-3.29,13.26,13.26,0,0,1,4.58-1.89,26.23,26.23,0,0,1,5.78-.6,19.21,19.21,0,0,1,2,.1c.69.06,1.36.15,2,.26s1.19.23,1.66.34a5.81,5.81,0,0,1,1,.29v-2.12a23.39,23.39,0,0,0-.26-3.49,7.68,7.68,0,0,0-1.17-3.06A6.37,6.37,0,0,0,68.17,288a9.42,9.42,0,0,0-4.29-.83,22.41,22.41,0,0,0-5.65.53c-1.24.35-2.15.64-2.72.86l-.6-3.78a15.68,15.68,0,0,1,3.49-1,29.81,29.81,0,0,1,5.68-.47Zm36.59,35.89a18.38,18.38,0,0,1-7-1.26,13.33,13.33,0,0,1-5.09-3.62,16.24,16.24,0,0,1-3.09-5.65,23.83,23.83,0,0,1-1.06-7.28,23.53,23.53,0,0,1,1.1-7.38,16.64,16.64,0,0,1,3.15-5.71,13.92,13.92,0,0,1,5-3.69,16,16,0,0,1,6.58-1.3,27.76,27.76,0,0,1,5.22.47,13.35,13.35,0,0,1,3.75,1.19l-1.13,3.73a13.64,13.64,0,0,0-3-1.07,20.17,20.17,0,0,0-4.45-.4q-5.72,0-8.68,3.69t-3,10.47a22.51,22.51,0,0,0,.66,5.62,11.18,11.18,0,0,0,2.16,4.38,10.12,10.12,0,0,0,3.86,2.86,14.28,14.28,0,0,0,5.75,1,15,15,0,0,0,4.68-.63,19.14,19.14,0,0,0,2.76-1.1l.93,3.73a16.45,16.45,0,0,1-3.75,1.29,22.35,22.35,0,0,1-5.36.63Zm13.27-17.94a21.73,21.73,0,0,1,1.3-7.88,17.08,17.08,0,0,1,3.39-5.61,13.27,13.27,0,0,1,4.78-3.36,14.61,14.61,0,0,1,5.55-1.1A13,13,0,0,1,139,287.41q3.75,4.13,3.75,12.7c0,.35,0,.71,0,1.06a9.66,9.66,0,0,1-.1,1H118.53q.19,6.31,3.12,9.7t9.3,3.39a19,19,0,0,0,5.59-.66,24.62,24.62,0,0,0,3-1.13l.79,3.72a18.49,18.49,0,0,1-3.48,1.26,22,22,0,0,1-6,.73,20,20,0,0,1-7.71-1.33,13.62,13.62,0,0,1-5.25-3.72,14.73,14.73,0,0,1-3-5.68,26.44,26.44,0,0,1-.93-7.21Zm24.39-2.73q-.14-5.38-2.52-8.37a8.18,8.18,0,0,0-6.78-3,9.06,9.06,0,0,0-4.16.93,10.56,10.56,0,0,0-3.19,2.49,11.36,11.36,0,0,0-2.12,3.62,15,15,0,0,0-.9,4.32Z"/><path class="cls-2" d="M172.73,301.24a12,12,0,0,0-2.06-7.35,7.13,7.13,0,0,0-6.11-2.75c-.89,0-1.71,0-2.46.1a18,18,0,0,0-1.86.23v17.88a8.44,8.44,0,0,0,2.42,1,11.57,11.57,0,0,0,3,.4q7,0,7-9.5Zm10.1-.27a25.79,25.79,0,0,1-1,7.38,16.64,16.64,0,0,1-2.93,5.72,13.28,13.28,0,0,1-4.78,3.72,15.55,15.55,0,0,1-6.58,1.33,18.15,18.15,0,0,1-3.86-.4,18.57,18.57,0,0,1-3.45-1.13v13.16h-9.91V284.69c.89-.27,1.91-.52,3.06-.77s2.36-.45,3.62-.63,2.55-.32,3.86-.43,2.56-.17,3.75-.17a21.56,21.56,0,0,1,7.71,1.3,15.23,15.23,0,0,1,9.27,9.41,22,22,0,0,1,1.23,7.57Zm36.74-17.48q-3,10.11-6.26,18.94t-7.13,17.15a38.82,38.82,0,0,1-2.79,5.09,16,16,0,0,1-3.07,3.45,10.78,10.78,0,0,1-3.75,2,17.19,17.19,0,0,1-4.9.63,20.68,20.68,0,0,1-4.3-.43,18.48,18.48,0,0,1-3.22-1l1.73-7.91a15.72,15.72,0,0,0,2.72.73,14.66,14.66,0,0,0,2.53.2,5.48,5.48,0,0,0,4.08-1.43,11.31,11.31,0,0,0,2.44-3.95q-3.41-6.64-6.79-14.92a185.16,185.16,0,0,1-6.38-18.58H195c.44,1.73,1,3.6,1.57,5.62s1.23,4.05,1.9,6.11,1.35,4.07,2,6,1.35,3.72,2,5.32q.85-2.4,1.8-5.32t1.83-6q.91-3.09,1.74-6.11c.56-2,1-3.89,1.51-5.62Zm3.84-8.7,9.91-1.6v10.3h11.89v8.24H233.32V304a9.78,9.78,0,0,0,1.09,5c.73,1.25,2.21,1.87,4.42,1.87a18.81,18.81,0,0,0,3.29-.3,17.36,17.36,0,0,0,3.09-.83l1.4,7.71a30.27,30.27,0,0,1-4,1.26,23.49,23.49,0,0,1-5.38.53,17.78,17.78,0,0,1-6.72-1.1,10.55,10.55,0,0,1-4.25-3,11.47,11.47,0,0,1-2.23-4.76,28.1,28.1,0,0,1-.63-6.18V274.79Zm28.76,43.66v-50l9.91-1.59v16.74a20.81,20.81,0,0,1,2.56-.63,16,16,0,0,1,3-.3,18.58,18.58,0,0,1,7.08,1.17,11,11,0,0,1,4.52,3.29,12.65,12.65,0,0,1,2.39,5.05,27.83,27.83,0,0,1,.7,6.51v19.74h-9.9V299.91q0-4.79-1.23-6.78t-4.56-2a12.39,12.39,0,0,0-2.49.23c-.77.15-1.47.32-2.09.5v26.58Zm70.77-17.54a22.93,22.93,0,0,1-1.19,7.54,16.43,16.43,0,0,1-3.46,5.85,15.42,15.42,0,0,1-5.42,3.75,19.32,19.32,0,0,1-14.09,0,15.38,15.38,0,0,1-5.41-3.75,17.33,17.33,0,0,1-3.53-5.85,21.69,21.69,0,0,1-1.26-7.54,20.7,20.7,0,0,1,1.3-7.51,17,17,0,0,1,3.59-5.79,16.1,16.1,0,0,1,5.45-3.72,17.44,17.44,0,0,1,6.88-1.33,17.63,17.63,0,0,1,6.94,1.33,15.88,15.88,0,0,1,5.42,3.72,17,17,0,0,1,3.52,5.79,21.36,21.36,0,0,1,1.26,7.51Zm-10.1,0a12.46,12.46,0,0,0-1.83-7.22,6,6,0,0,0-5.21-2.62,6.07,6.07,0,0,0-5.26,2.62,12.31,12.31,0,0,0-1.86,7.22,12.59,12.59,0,0,0,1.86,7.27,6,6,0,0,0,5.26,2.7,5.93,5.93,0,0,0,5.21-2.7,12.74,12.74,0,0,0,1.83-7.27Zm16.67-16.22a54.25,54.25,0,0,1,6.51-1.36,52.43,52.43,0,0,1,8.37-.64,20.27,20.27,0,0,1,7.41,1.17,11,11,0,0,1,4.69,3.29A12.89,12.89,0,0,1,359,292.2a26.74,26.74,0,0,1,.73,6.51v19.74h-9.9V299.91q0-4.79-1.27-6.78t-4.71-2c-.71,0-1.47,0-2.26.1s-1.51.14-2.13.23v27h-9.9Z"/></g></g></svg>