<svg xmlns="http://www.w3.org/2000/svg" viewBox="0 0 359.68 72.91"><defs><style>.cls-1{fill:#e08631;}.cls-1,.cls-2{fill-rule:evenodd;}.cls-2{fill:#4b0027;}</style></defs><g id="Calque_2" data-name="Calque 2"><g id="Layer_1" data-name="Layer 1"><path class="cls-1" d="M51.56,8.85a30.21,30.21,0,0,1,0,42.71L40.42,62.69,19.07,41.34c7-7,14-3.57,17.52,0l3.83,3.83L42.8,42.8a17.81,17.81,0,1,0-25.19,0L30.2,55.39c.51.51,8.54,9,0,17.52L8.85,51.56A30.2,30.2,0,0,1,51.56,8.85Z"/><path class="cls-1" d="M23.79,43.92l-3.66-3.65A14.21,14.21,0,0,1,16,30.2h0a.76.76,0,0,0-.75-.75h0a.76.76,0,0,0-.76.75h0a15.7,15.7,0,0,0,4.62,11.14l4.72,4.72Z"/><path class="cls-2" d="M30.2,44.88a2.37,2.37,0,1,0-2.37-2.37A2.37,2.37,0,0,0,30.2,44.88Z"/><path class="cls-1" d="M76.64,47.18a12.26,12.26,0,0,0,1.19.79,10.87,10.87,0,0,0,1.67.79,12.12,12.12,0,0,0,2.06.61,11,11,0,0,0,2.33.24,9.34,9.34,0,0,0,4.26-.87,7.41,7.41,0,0,0,2.78-2.38,10.12,10.12,0,0,0,1.54-3.55,18.79,18.79,0,0,0,.47-4.31c0-3.6-.89-6.37-2.69-8.29a9.36,9.36,0,0,0-7.15-2.88,28.21,28.21,0,0,0-4.1.23,14.68,14.68,0,0,0-2.36.51V47.18Zm0,14.71H73.2V25.68a31.8,31.8,0,0,1,3.92-1,31.38,31.38,0,0,1,6-.48,14.77,14.77,0,0,1,5.48,1A12,12,0,0,1,92.87,28a12.94,12.94,0,0,1,2.75,4.5,17.26,17.26,0,0,1,1,6,19.37,19.37,0,0,1-.82,5.74,12.79,12.79,0,0,1-2.41,4.5,11.23,11.23,0,0,1-3.89,2.94,12.59,12.59,0,0,1-5.27,1.06A13,13,0,0,1,79.53,52a12,12,0,0,1-2.89-1.46V61.89Zm33.54-9.31a12,12,0,0,1-3-.45A5.42,5.42,0,0,1,105,50.91a5.09,5.09,0,0,1-1.33-2.12,10,10,0,0,1-.45-3.25V11.66l3.44-.64V45.43a7,7,0,0,0,.24,2,2.77,2.77,0,0,0,.72,1.22,2.83,2.83,0,0,0,1.24.66,16.74,16.74,0,0,0,1.83.37l-.48,2.86Zm14.38-3c1.34,0,2.51,0,3.52-.13a24.8,24.8,0,0,0,2.56-.34V39.5a10.33,10.33,0,0,0-1.85-.56,16.68,16.68,0,0,0-3.49-.29,20.53,20.53,0,0,0-2.65.19,7.69,7.69,0,0,0-2.54.79,5.31,5.31,0,0,0-1.91,1.67,4.84,4.84,0,0,0-.74,2.81A6,6,0,0,0,118,46.7a4.07,4.07,0,0,0,1.43,1.69,6,6,0,0,0,2.22.93,13.68,13.68,0,0,0,2.94.29Zm-.32-25.51a12.16,12.16,0,0,1,4.58.76,7.91,7.91,0,0,1,3,2.12,8.42,8.42,0,0,1,1.7,3.2,14.77,14.77,0,0,1,.53,4V51.46a13.82,13.82,0,0,1-1.54.35l-2.33.4c-.88.14-1.86.25-2.94.34s-2.18.13-3.31.13a16.17,16.17,0,0,1-4-.47,8.84,8.84,0,0,1-3.18-1.51,7.2,7.2,0,0,1-2.12-2.65,9.17,9.17,0,0,1-.76-3.94,8.07,8.07,0,0,1,.84-3.82,7.31,7.31,0,0,1,2.39-2.62,10.66,10.66,0,0,1,3.65-1.5,20.82,20.82,0,0,1,4.6-.48c.5,0,1,0,1.56.08s1.08.12,1.59.21,1,.18,1.33.27a3.53,3.53,0,0,1,.76.23V34.79a18.1,18.1,0,0,0-.21-2.78,6.22,6.22,0,0,0-.92-2.44,5.16,5.16,0,0,0-2-1.74,7.53,7.53,0,0,0-3.41-.66,17.81,17.81,0,0,0-4.5.42c-1,.28-1.71.51-2.17.69l-.48-3a12.6,12.6,0,0,1,2.78-.79,23.59,23.59,0,0,1,4.53-.37Zm29.15,28.58a14.68,14.68,0,0,1-5.62-1,10.65,10.65,0,0,1-4.05-2.89,13,13,0,0,1-2.46-4.5,18.88,18.88,0,0,1-.84-5.79,18.72,18.72,0,0,1,.87-5.88,13.2,13.2,0,0,1,2.51-4.55,11.22,11.22,0,0,1,4-2.94,12.8,12.8,0,0,1,5.24-1,21.83,21.83,0,0,1,4.16.37,10.11,10.11,0,0,1,3,1l-.9,3a11.08,11.08,0,0,0-2.38-.84,15.91,15.91,0,0,0-3.55-.32,8.34,8.34,0,0,0-6.91,2.94q-2.35,2.94-2.35,8.34A17.45,17.45,0,0,0,144.6,43a8.86,8.86,0,0,0,1.72,3.49,8.08,8.08,0,0,0,3.07,2.28,11.37,11.37,0,0,0,4.58.82,12.11,12.11,0,0,0,3.73-.5,15.07,15.07,0,0,0,2.2-.88l.74,3a13.36,13.36,0,0,1-3,1,18,18,0,0,1-4.26.5ZM164,38.39a17.31,17.31,0,0,1,1-6.27,13.83,13.83,0,0,1,2.7-4.48A10.65,10.65,0,0,1,171.49,25a11.68,11.68,0,0,1,4.42-.87,10.3,10.3,0,0,1,8,3.28q3,3.29,3,10.11c0,.28,0,.56,0,.85s-.05.54-.08.79H167.6q.17,5,2.49,7.73t7.41,2.7A15.08,15.08,0,0,0,182,49a17.64,17.64,0,0,0,2.38-.9l.64,3a14,14,0,0,1-2.78,1,17.5,17.5,0,0,1-4.79.58,15.85,15.85,0,0,1-6.14-1.06,11,11,0,0,1-4.19-3,11.84,11.84,0,0,1-2.38-4.53,21.16,21.16,0,0,1-.74-5.74Zm19.43-2.17a10.87,10.87,0,0,0-2-6.67,6.51,6.51,0,0,0-5.4-2.38,7.11,7.11,0,0,0-3.31.74,8.27,8.27,0,0,0-2.54,2,9.15,9.15,0,0,0-1.7,2.89,12,12,0,0,0-.71,3.44Z"/><path class="cls-2" d="M210.78,38.39a9.55,9.55,0,0,0-1.64-5.85,5.72,5.72,0,0,0-4.87-2.2c-.71,0-1.36,0-2,.08s-1.1.12-1.48.19V44.85a6.6,6.6,0,0,0,1.93.79,9.39,9.39,0,0,0,2.41.32q5.61,0,5.61-7.57Zm8-.21a20.33,20.33,0,0,1-.79,5.87,13.28,13.28,0,0,1-2.33,4.56,10.5,10.5,0,0,1-3.81,3,12.23,12.23,0,0,1-5.24,1.06,14.25,14.25,0,0,1-3.07-.32,14.51,14.51,0,0,1-2.75-.9V61.89h-7.89V25.21c.7-.21,1.52-.42,2.43-.61s1.88-.36,2.89-.5,2-.26,3.07-.35,2-.13,3-.13a17.08,17.08,0,0,1,6.14,1,12.18,12.18,0,0,1,7.39,7.49,17.68,17.68,0,0,1,1,6Zm29.27-13.93q-2.39,8.06-5,15.09c-1.74,4.7-3.62,9.25-5.68,13.66a30.72,30.72,0,0,1-2.22,4,12.73,12.73,0,0,1-2.45,2.75,8.38,8.38,0,0,1-3,1.59,13.48,13.48,0,0,1-3.9.5,16,16,0,0,1-3.42-.34,15.46,15.46,0,0,1-2.57-.77l1.38-6.3a12.9,12.9,0,0,0,2.17.58,11.7,11.7,0,0,0,2,.16,4.41,4.41,0,0,0,3.25-1.13,9.18,9.18,0,0,0,1.95-3.15q-2.72-5.3-5.41-11.89a145,145,0,0,1-5.08-14.8h8.36c.35,1.38.77,2.87,1.25,4.48s1,3.23,1.51,4.87,1.08,3.24,1.62,4.79,1.08,3,1.58,4.23c.45-1.27.93-2.68,1.43-4.23s1-3.15,1.46-4.79.94-3.27,1.38-4.87.84-3.1,1.2-4.48Zm3-6.93L259,16.05v8.2h9.48v6.57H259v9.79a7.71,7.71,0,0,0,.88,4c.58,1,1.75,1.49,3.52,1.49a15,15,0,0,0,2.62-.24,13.75,13.75,0,0,0,2.46-.66l1.11,6.14a22.94,22.94,0,0,1-3.18,1,18.52,18.52,0,0,1-4.28.43,14.14,14.14,0,0,1-5.35-.88,8.4,8.4,0,0,1-3.39-2.43,9,9,0,0,1-1.77-3.79,22,22,0,0,1-.51-4.92V17.32ZM274.05,52.1V12.29L281.94,11V24.36a16,16,0,0,1,2-.5,12.7,12.7,0,0,1,2.41-.24,14.84,14.84,0,0,1,5.64.93,8.68,8.68,0,0,1,3.6,2.62,10.12,10.12,0,0,1,1.9,4,22.38,22.38,0,0,1,.56,5.19V52.1H290.2V37.33q0-3.81-1-5.4t-3.63-1.59a9.64,9.64,0,0,0-2,.19c-.62.12-1.18.25-1.67.39V52.1Zm56.37-14a18.21,18.21,0,0,1-.95,6,13.14,13.14,0,0,1-2.76,4.66,12.24,12.24,0,0,1-4.31,3,14.35,14.35,0,0,1-5.64,1.06,14.12,14.12,0,0,1-5.58-1.06,12.27,12.27,0,0,1-4.32-3,13.67,13.67,0,0,1-2.8-4.66,17.22,17.22,0,0,1-1-6,16.61,16.61,0,0,1,1-6,13.53,13.53,0,0,1,2.86-4.6,13,13,0,0,1,4.34-3,14.82,14.82,0,0,1,11,0,12.63,12.63,0,0,1,4.32,3,13.4,13.4,0,0,1,2.8,4.6,17.05,17.05,0,0,1,1,6Zm-8.05,0a9.91,9.91,0,0,0-1.45-5.74,4.78,4.78,0,0,0-4.16-2.09,4.83,4.83,0,0,0-4.18,2.09,9.76,9.76,0,0,0-1.48,5.74,10,10,0,0,0,1.48,5.8,4.79,4.79,0,0,0,4.18,2.15,4.74,4.74,0,0,0,4.16-2.15,10.18,10.18,0,0,0,1.45-5.8Zm13.28-12.91a44.33,44.33,0,0,1,5.19-1.09,43.2,43.2,0,0,1,6.67-.5,16.19,16.19,0,0,1,5.9.93,8.8,8.8,0,0,1,3.73,2.62,10.21,10.21,0,0,1,2,4,21.3,21.3,0,0,1,.58,5.19V52.1h-7.89V37.33q0-3.81-1-5.4c-.67-1.06-1.93-1.59-3.76-1.59-.57,0-1.17,0-1.8.08s-1.2.12-1.69.19V52.1h-7.89Z"/></g></g></svg>