<svg xmlns="http://www.w3.org/2000/svg" viewBox="0 0 194.4 234.67"><defs><style>.cls-1{fill:#e08631;}.cls-1,.cls-2{fill-rule:evenodd;}.cls-2{fill:#4b0027;}</style></defs><g id="Calque_2" data-name="Calque 2"><g id="Layer_1" data-name="Layer 1"><path class="cls-1" d="M165.93,28.47a97.2,97.2,0,0,1,0,137.46L130.1,201.77,61.37,133c22.62-22.63,44.91-11.49,56.39,0l12.34,12.34,7.64-7.64a57.33,57.33,0,1,0-81.07,0L97.2,178.27c1.64,1.64,27.5,28.9,0,56.4L28.47,165.93A97.2,97.2,0,0,1,165.93,28.47Z"/><path class="cls-1" d="M76.57,141.37,64.8,129.6A45.67,45.67,0,0,1,51.37,97.2h0a2.43,2.43,0,0,0-2.43-2.42h0a2.43,2.43,0,0,0-2.42,2.42h0A50.53,50.53,0,0,0,61.37,133l15.2,15.2Z"/><path class="cls-2" d="M97.2,144.45a7.63,7.63,0,1,0-7.63-7.63A7.64,7.64,0,0,0,97.2,144.45Z"/></g></g></svg>